<?xml version="1.0" standalone="no"?>
<!DOCTYPE svg PUBLIC "-//W3C//DTD SVG 20010904//EN"
 "http://www.w3.org/TR/2001/REC-SVG-20010904/DTD/svg10.dtd">
<svg version="1.0" xmlns="http://www.w3.org/2000/svg"
 width="354.000000pt" height="354.000000pt" viewBox="0 0 354.000000 354.000000"
 preserveAspectRatio="xMidYMid meet">
<metadata>
Created by potrace 1.14, written by Peter Selinger 2001-2017
</metadata>
<g transform="translate(0.000000,354.000000) scale(0.100000,-0.100000)"
fill="#000000" stroke="none">
<path d="M979 2878 c-1 -2 -2 -486 -3 -1076 l-1 -1073 525 4 c289 2 536 6 550
10 14 4 39 9 55 13 117 22 275 99 355 171 161 146 281 399 307 646 9 91 10
340 0 432 -29 281 -119 490 -281 651 -101 100 -243 177 -366 198 -19 3 -46 9
-60 13 -25 6 -1079 18 -1081 11z m951 -374 c226 -40 349 -192 386 -479 12 -94
10 -355 -3 -462 -33 -256 -126 -397 -293 -443 -75 -21 -86 -22 -351 -27 l-257
-5 0 717 0 717 242 -6 c132 -3 257 -8 276 -12z"/>
</g>
</svg>
